#N canvas 418 115 450 299 10;
#X obj 140 112 readsf~;
#X msg 93 76 1;
#X obj 134 162 pan_can2test;
#X obj 277 164 line;
#X obj 135 4 inlet;
#X msg 216 129 0;
#X obj 133 206 outlet~;
#X obj 204 205 outlet~;
#X msg 281 95 1 250;
#X obj 319 62 delay 250;
#X msg 333 107 0 250;
#X obj 269 62 b;
#X msg 136 38 open sounds/marker.wav;
#X connect 0 0 2 0;
#X connect 1 0 0 0;
#X connect 2 0 6 0;
#X connect 2 1 7 0;
#X connect 3 0 2 1;
#X connect 4 0 12 0;
#X connect 4 0 5 0;
#X connect 5 0 3 0;
#X connect 8 0 3 0;
#X connect 9 0 10 0;
#X connect 10 0 3 0;
#X connect 11 0 9 0;
#X connect 12 0 0 0;
#X connect 12 0 1 0;
#X connect 12 0 8 0;
#X connect 12 0 11 0;
