#N canvas -8 -8 1600 818 10;
#X declare -lib mrpeach;
#X obj 11 16 import mrpeach;
#X obj 762 34 udpreceive 5005;
#X obj 762 76 unpackOSC;
#X obj 221 156 route /positionMain;
#X floatatom 115 232 5 0 0 0 Distance_de_la_main - -;
#X obj 1175 107 route /events;
#X obj 546 167 route /swipe;
#X obj 188 283 sampletest;
#X obj 217 224 / 10;
#X obj 933 169 route /circle;
#X obj 314 338 route /up;
#X obj 638 343 route /right;
#X obj 416 339 route /left;
#X obj 542 343 route /down;
#X obj 1265 349 route /keytap;
#X obj 1401 352 route /screentap;
#X obj 427 153 print;
#X obj 1322 292 print;
#X obj 1206 290 print;
#X obj 839 228 route /trigo;
#X obj 1027 236 route /horaire;
#X obj 760 346 route /start;
#X obj 1026 345 route /start;
#X obj 883 344 route /stop;
#X obj 1149 349 route /stop;
#X obj 846 153 print;
#X connect 1 0 2 0;
#X connect 2 0 3 0;
#X connect 2 0 5 0;
#X connect 3 0 4 0;
#X connect 3 0 8 0;
#X connect 5 0 6 0;
#X connect 5 0 9 0;
#X connect 5 0 15 0;
#X connect 5 0 14 0;
#X connect 6 0 10 0;
#X connect 6 0 11 0;
#X connect 6 0 12 0;
#X connect 6 0 13 0;
#X connect 6 0 16 0;
#X connect 8 0 7 0;
#X connect 9 0 19 0;
#X connect 9 0 20 0;
#X connect 9 0 25 0;
#X connect 14 0 18 0;
#X connect 15 0 17 0;
#X connect 19 0 21 0;
#X connect 19 0 23 0;
#X connect 20 0 22 0;
#X connect 20 0 24 0;
