#N canvas 0 0 1600 818 10;
#X declare -lib mrpeach;
#X obj 131 6 import mrpeach;
#X obj 762 34 udpreceive 5005;
#X obj 762 76 unpackOSC;
#X obj 702 129 route /positionMain;
#X floatatom 670 245 5 0 0 0 Distance_de_la_main - -;
#X obj 910 136 route /events;
#X obj 938 210 route /swipe;
#X obj 738 329 sampletest;
#X obj 757 239 / 10;
#X obj 918 396 readsf~ 2 44100;
#X obj 938 463 dac~;
#X obj 947 272 b;
#X obj 1072 217 route /circle;
#X obj 1092 399 readsf~ 2 44100;
#X obj 1112 466 dac~;
#X obj 1121 275 b;
#X msg 916 318 open sounds/swipe.wav \, 1;
#X msg 1090 321 open sounds/circle.wav \, 1;
#X connect 1 0 2 0;
#X connect 2 0 3 0;
#X connect 2 0 5 0;
#X connect 3 0 4 0;
#X connect 3 0 8 0;
#X connect 5 0 6 0;
#X connect 5 0 12 0;
#X connect 6 0 11 0;
#X connect 8 0 7 0;
#X connect 9 0 10 0;
#X connect 9 1 10 1;
#X connect 11 0 16 0;
#X connect 12 0 15 0;
#X connect 13 0 14 0;
#X connect 13 1 14 1;
#X connect 15 0 17 0;
#X connect 16 0 9 0;
#X connect 17 0 13 0;
