#N canvas -8 -8 1600 818 10;
#X declare -lib mrpeach;
#X obj 11 16 import mrpeach;
#X obj 762 34 udpreceive 5005;
#X obj 762 76 unpackOSC;
#X obj 221 156 route /positionMain;
#X floatatom 115 232 5 0 0 0 Distance_de_la_main - -;
#X obj 1175 107 route /events;
#X obj 546 167 route /swipe;
#X obj 217 224 / 10;
#X obj 933 169 route /circle;
#X obj 1265 349 route /keytap;
#X obj 1401 352 route /screentap;
#N canvas 105 95 1066 534 swipe 1;
#X obj 599 23 inlet;
#X obj 496 110 route /up;
#X obj 766 111 route /right;
#X obj 579 110 route /left;
#X obj 670 111 route /down;
#X obj 398 111 route /speed;
#X obj 862 110 route /stop;
#X obj 766 162 swipe_droite;
#X obj 579 157 swipe_gauche;
#X obj 579 459 outlet~;
#X obj 835 456 outlet~;
#X obj 496 246 swipe_haut;
#X obj 880 258 swipe_bas;
#X connect 0 0 5 0;
#X connect 0 0 1 0;
#X connect 0 0 3 0;
#X connect 0 0 4 0;
#X connect 0 0 2 0;
#X connect 0 0 6 0;
#X connect 1 0 11 0;
#X connect 2 0 7 0;
#X connect 3 0 8 0;
#X connect 4 0 12 0;
#X connect 7 0 9 0;
#X connect 7 1 10 0;
#X connect 8 0 9 0;
#X connect 8 1 10 0;
#X connect 11 0 9 0;
#X connect 11 0 10 0;
#X connect 12 0 9 0;
#X connect 12 0 10 0;
#X restore 546 227 pd swipe;
#N canvas 0 0 1600 818 circle 0;
#X obj 483 204 route /trigo;
#X obj 671 212 route /horaire;
#X obj 412 319 route /start;
#X obj 671 325 route /start;
#X obj 527 320 route /stop;
#X obj 793 325 route /stop;
#X obj 603 93 inlet;
#X obj 515 620 outlet~;
#X obj 413 521 *~ 1.5;
#X obj 604 538 *~ 0.1;
#X obj 614 492 play;
#X obj 659 618 outlet~;
#X obj 486 521 *~ 1.5;
#X obj 726 449 cercle_droit;
#X obj 726 519 *~ 1.5;
#X obj 795 519 *~ 1.5;
#X obj 547 401 delay 700;
#X msg 547 442 open sounds/staple.wav \, 1;
#X obj 412 451 cercle_gauche;
#X connect 0 0 2 0;
#X connect 0 0 4 0;
#X connect 1 0 3 0;
#X connect 1 0 5 0;
#X connect 2 0 16 0;
#X connect 2 0 18 0;
#X connect 3 0 16 0;
#X connect 3 0 13 0;
#X connect 6 0 0 0;
#X connect 6 0 1 0;
#X connect 8 0 7 0;
#X connect 9 0 7 0;
#X connect 9 0 11 0;
#X connect 10 0 9 0;
#X connect 12 0 11 0;
#X connect 13 0 14 0;
#X connect 13 1 15 0;
#X connect 14 0 7 0;
#X connect 15 0 11 0;
#X connect 16 0 17 0;
#X connect 17 0 10 0;
#X connect 18 0 8 0;
#X connect 18 1 12 0;
#X restore 933 228 pd circle;
#X obj 217 273 sampletest;
#X msg 90 119 0;
#X msg 141 120 70;
#X msg 1306 414 open sounds/staple.wav \, 1;
#X obj 784 750 dac~;
#X obj 1243 550 *~ 0.1;
#X obj 1306 505 play;
#X connect 1 0 2 0;
#X connect 2 0 3 0;
#X connect 2 0 5 0;
#X connect 3 0 4 0;
#X connect 3 0 7 0;
#X connect 5 0 6 0;
#X connect 5 0 8 0;
#X connect 5 0 10 0;
#X connect 5 0 9 0;
#X connect 6 0 11 0;
#X connect 7 0 13 2;
#X connect 8 0 12 0;
#X connect 9 0 16 0;
#X connect 10 0 16 0;
#X connect 11 0 17 0;
#X connect 11 1 17 1;
#X connect 12 0 17 0;
#X connect 12 1 17 1;
#X connect 13 0 17 0;
#X connect 13 1 17 1;
#X connect 14 0 13 0;
#X connect 15 0 13 1;
#X connect 16 0 19 0;
#X connect 18 0 17 1;
#X connect 18 0 17 0;
#X connect 19 0 18 0;
