#N canvas 538 243 450 300 10;
#X obj 144 208 dac~;
#X obj 140 112 readsf~;
#X msg 136 38 open page_turn.wav;
#X msg 93 76 1;
#X obj 134 162 pan_can2test;
#X obj 277 164 line;
#X msg 320 94 1 800;
#X msg 216 129 0;
#X connect 1 0 4 0;
#X connect 1 1 7 0;
#X connect 2 0 1 0;
#X connect 2 0 3 0;
#X connect 2 0 6 0;
#X connect 3 0 1 0;
#X connect 4 0 0 0;
#X connect 4 1 0 1;
#X connect 5 0 4 1;
#X connect 6 0 5 0;
#X connect 7 0 5 0;
