#N canvas 483 334 450 300 10;
#X obj 140 112 readsf~;
#X msg 93 76 1;
#X obj 134 162 pan_can2test;
#X obj 277 164 line;
#X obj 135 4 inlet;
#X msg 136 38 open sounds/page_turn.wav;
#X msg 216 129 1;
#X msg 320 94 0 600;
#X obj 135 205 outlet~;
#X obj 204 204 outlet~;
#X connect 0 0 2 0;
#X connect 0 1 6 0;
#X connect 1 0 0 0;
#X connect 2 0 8 0;
#X connect 2 1 9 0;
#X connect 3 0 2 1;
#X connect 4 0 5 0;
#X connect 4 0 6 0;
#X connect 5 0 0 0;
#X connect 5 0 1 0;
#X connect 5 0 7 0;
#X connect 6 0 3 0;
#X connect 7 0 3 0;

