#N canvas 592 92 888 464 10;
#X obj 224 212 readsf~;
#X msg 182 176 1;
#X obj 223 262 pan_can2test;
#X obj 224 28 inlet;
#X obj 402 245 line;
#X obj 360 72 * -1;
#X obj 397 96 + 1;
#X msg 452 204 \$1 \$2;
#X obj 434 137 f;
#X obj 451 175 pack;
#X obj 384 185 bng 15 250 50 0 empty empty empty 17 7 0 10 -262144
-1 -1;
#X msg 224 152 open sounds/t0_circle.wav;
#X floatatom 402 321 5 0 0 0 - - -;
#X obj 161 127 r tcirc;
#X obj 480 258 delay 250;
#X obj 473 143 f 250;
#X msg 643 228 \$1 \$2;
#X obj 642 195 pack;
#X obj 664 163 f 250;
#X obj 583 144 f;
#X obj 79 303 r vol_circ;
#X obj 222 370 throw~ sonG;
#X obj 292 371 throw~ sonD;
#X obj 222 320 *~ 1;
#X obj 292 320 *~ 1;
#X connect 0 0 2 0;
#X connect 0 0 2 1;
#X connect 1 0 0 0;
#X connect 2 0 23 0;
#X connect 2 1 24 0;
#X connect 3 0 4 0;
#X connect 3 0 11 0;
#X connect 3 0 5 0;
#X connect 3 0 19 1;
#X connect 4 0 12 0;
#X connect 4 0 2 2;
#X connect 5 0 6 0;
#X connect 6 0 8 0;
#X connect 7 0 4 0;
#X connect 8 0 9 0;
#X connect 9 0 7 0;
#X connect 10 0 15 0;
#X connect 10 0 14 0;
#X connect 11 0 0 0;
#X connect 11 0 1 0;
#X connect 11 0 10 0;
#X connect 13 0 11 0;
#X connect 14 0 18 0;
#X connect 14 0 19 0;
#X connect 15 0 9 1;
#X connect 16 0 4 0;
#X connect 17 0 16 0;
#X connect 18 0 17 1;
#X connect 19 0 17 0;
#X connect 20 0 23 1;
#X connect 20 0 24 1;
#X connect 23 0 21 0;
#X connect 24 0 22 0;
