#N canvas -8 -8 1600 818 10;
#X obj 150 122 readsf~;
#X msg 103 86 1;
#X obj 144 172 pan_can2test;
#X obj 287 174 line;
#X obj 145 14 inlet;
#X obj 143 216 outlet~;
#X obj 214 215 outlet~;
#X msg 146 48 open sounds/marker.wav;
#X msg 226 139 1;
#X obj 280 73 b;
#X obj 322 77 delay 250;
#X msg 291 105 0 250;
#X msg 357 109 1 250;
#X connect 0 0 2 0;
#X connect 1 0 0 0;
#X connect 2 0 5 0;
#X connect 2 1 6 0;
#X connect 3 0 2 1;
#X connect 4 0 7 0;
#X connect 4 0 8 0;
#X connect 7 0 0 0;
#X connect 7 0 1 0;
#X connect 7 0 11 0;
#X connect 7 0 9 0;
#X connect 8 0 3 0;
#X connect 9 0 10 0;
#X connect 10 0 12 0;
#X connect 11 0 3 0;
#X connect 12 0 3 0;
