#N canvas 211 109 888 495 10;
#X obj 224 212 readsf~;
#X msg 182 176 1;
#X obj 223 262 pan_can2test;
#X obj 224 28 inlet;
#X obj 222 306 outlet~;
#X obj 293 305 outlet~;
#X obj 402 245 line;
#X obj 360 72 * -1;
#X obj 397 96 + 1;
#X msg 452 204 \$1 \$2;
#X obj 434 137 f;
#X obj 451 175 pack;
#X obj 384 185 bng 15 250 50 0 empty empty empty 17 7 0 10 -262144
-1 -1;
#X msg 224 152 open sounds/manivelle.wav;
#X floatatom 393 323 5 0 0 0 - - -;
#X obj 161 127 r tcirc;
#X obj 480 258 delay 250;
#X obj 473 143 f 250;
#X msg 643 228 \$1 \$2;
#X obj 642 195 pack;
#X obj 664 163 f 250;
#X obj 583 144 f;
#X obj 194 350 dac~;
#X connect 0 0 2 0;
#X connect 0 0 2 1;
#X connect 1 0 0 0;
#X connect 2 0 4 0;
#X connect 2 0 22 0;
#X connect 2 1 5 0;
#X connect 2 1 22 1;
#X connect 3 0 6 0;
#X connect 3 0 13 0;
#X connect 3 0 7 0;
#X connect 3 0 21 1;
#X connect 6 0 14 0;
#X connect 6 0 2 2;
#X connect 7 0 8 0;
#X connect 8 0 10 0;
#X connect 9 0 6 0;
#X connect 10 0 11 0;
#X connect 11 0 9 0;
#X connect 12 0 17 0;
#X connect 12 0 16 0;
#X connect 13 0 0 0;
#X connect 13 0 1 0;
#X connect 13 0 12 0;
#X connect 15 0 13 0;
#X connect 16 0 20 0;
#X connect 16 0 21 0;
#X connect 17 0 11 1;
#X connect 18 0 6 0;
#X connect 19 0 18 0;
#X connect 20 0 19 1;
#X connect 21 0 19 0;
