#N canvas 499 99 843 489 10;
#X floatatom 290 -20 5 0 0 0 - - -;
#X floatatom 290 40 5 0 0 0 - - -;
#X floatatom 419 66 5 0 0 0 - - -;
#X floatatom 102 65 5 0 0 0 - - -;
#X floatatom 224 89 5 0 0 0 - - -;
#X obj 102 27 expr $f1 \; if ($f1 > 0 \, $f1 \, 0) \;;
#X obj 290 2 expr $f1 \; if ($f1 < 0 \, -$f1 \, 0) \;;
#X obj 190 119 delay~;
#X obj 386 90 delay~;
#X obj 172 -92 / 100;
#X floatatom 537 32 5 0 0 0 - - -;
#X obj 224 66 expr $f1 * 44.1;
#X obj 419 41 expr $f1 * 44.1;
#X obj 190 -49 inlet~;
#X obj 385 -119 inlet~;
#X obj 172 -175 inlet;
#X obj 189 236 outlet~;
#X obj 385 236 outlet~;
#X connect 0 0 5 0;
#X connect 0 0 6 0;
#X connect 2 0 8 1;
#X connect 4 0 7 1;
#X connect 5 0 3 0;
#X connect 5 1 11 0;
#X connect 6 0 1 0;
#X connect 6 1 10 0;
#X connect 6 1 12 0;
#X connect 7 0 16 0;
#X connect 8 0 17 0;
#X connect 9 0 5 0;
#X connect 9 0 6 0;
#X connect 11 0 4 0;
#X connect 12 0 2 0;
#X connect 13 0 7 0;
#X connect 14 0 8 0;
#X connect 15 0 9 0;
