#N canvas 247 110 450 340 10;
#X obj 204 15 inlet;
#X obj 191 317 outlet~;
#X obj 127 108 osc~;
#X obj 204 107 osc~;
#X obj 286 105 osc~;
#X obj 372 103 osc~;
#X obj 46 110 osc~;
#X obj 46 77 * 1;
#X obj 127 79 * 2;
#X obj 204 77 * 3;
#X obj 286 75 * 3;
#X obj 372 75 * 3;
#X obj 118 179 +~;
#X obj 238 183 +~;
#X obj 288 220 +~;
#X obj 191 252 +~;
#X obj 46 137 *~ 1;
#X obj 191 287 *~ 0.2;
#X obj 127 137 *~ 0.3;
#X obj 205 139 *~ 0.21;
#X obj 284 140 *~ 0.34;
#X obj 372 138 *~ 0.1;
#X connect 0 0 7 0;
#X connect 0 0 8 0;
#X connect 0 0 9 0;
#X connect 0 0 10 0;
#X connect 0 0 11 0;
#X connect 2 0 18 0;
#X connect 3 0 19 0;
#X connect 4 0 20 0;
#X connect 5 0 21 0;
#X connect 6 0 16 0;
#X connect 7 0 6 0;
#X connect 8 0 2 0;
#X connect 9 0 3 0;
#X connect 10 0 4 0;
#X connect 11 0 5 0;
#X connect 12 0 15 0;
#X connect 13 0 14 0;
#X connect 14 0 15 1;
#X connect 15 0 17 0;
#X connect 16 0 12 0;
#X connect 17 0 1 0;
#X connect 18 0 12 1;
#X connect 19 0 13 0;
#X connect 20 0 13 1;
#X connect 21 0 14 1;
