#N canvas 637 53 855 371 10;
#X obj 391 11 inlet;
#X obj 191 317 outlet~;
#X obj 127 108 osc~;
#X obj 204 107 osc~;
#X obj 286 105 osc~;
#X obj 372 103 osc~;
#X obj 46 110 osc~;
#X obj 46 77 * 1;
#X obj 127 79 * 2;
#X obj 204 77 * 3;
#X obj 118 179 +~;
#X obj 238 183 +~;
#X obj 480 211 +~;
#X obj 46 137 *~ 1;
#X obj 191 287 *~ 0.2;
#X obj 127 137 *~ 0.75;
#X obj 450 98 osc~;
#X obj 542 98 osc~;
#X obj 616 98 osc~;
#X obj 205 139 *~ 0.4;
#X obj 542 133 *~ 0.1;
#X obj 422 179 +~;
#X obj 579 175 +~;
#X obj 173 227 +~;
#X obj 286 75 * 4;
#X obj 372 75 * 5;
#X obj 450 70 * 6;
#X obj 542 70 * 7;
#X obj 616 70 * 8;
#X obj 450 133 *~ 0.15;
#X obj 304 242 +~;
#X obj 285 141 *~ 0.1;
#X obj 372 138 *~ 0.4;
#X obj 615 134 *~ 0.2;
#X connect 0 0 25 0;
#X connect 0 0 26 0;
#X connect 0 0 27 0;
#X connect 0 0 28 0;
#X connect 0 0 7 0;
#X connect 0 0 24 0;
#X connect 0 0 9 0;
#X connect 0 0 8 0;
#X connect 2 0 15 0;
#X connect 3 0 19 0;
#X connect 4 0 31 0;
#X connect 5 0 32 0;
#X connect 6 0 13 0;
#X connect 7 0 6 0;
#X connect 8 0 2 0;
#X connect 9 0 3 0;
#X connect 10 0 23 0;
#X connect 11 0 23 1;
#X connect 12 0 30 1;
#X connect 13 0 10 0;
#X connect 14 0 1 0;
#X connect 15 0 10 1;
#X connect 16 0 29 0;
#X connect 17 0 20 0;
#X connect 18 0 33 0;
#X connect 19 0 11 0;
#X connect 20 0 22 0;
#X connect 21 0 12 0;
#X connect 22 0 12 1;
#X connect 23 0 30 0;
#X connect 24 0 4 0;
#X connect 25 0 5 0;
#X connect 26 0 16 0;
#X connect 27 0 17 0;
#X connect 28 0 18 0;
#X connect 29 0 21 1;
#X connect 30 0 14 0;
#X connect 31 0 11 1;
#X connect 32 0 21 0;
#X connect 33 0 22 1;
