#N canvas 79 22 963 615 10;
#X obj 362 122 expr ($f1*$f2/2)-$f2/4;
#X obj 511 98 f 3.14159;
#X text 578 99 pi;
#X obj 511 74 loadbang;
#X obj 362 96 clip 0 1;
#X obj 362 176 expr (cos($f1)+sin($f1))*(sqrt(2)/2);
#X obj 470 202 expr (cos($f1)-sin($f1))*(sqrt(2)/2);
#X text 322 121 angle;
#X obj 362 325 line~;
#X obj 470 327 line~;
#X obj 236 61 inlet~;
#X obj 236 400 *~;
#X obj 347 392 *~;
#X obj 362 304 pack 0 200;
#X obj 470 305 pack 0 200;
#X text 479 224 gauche;
#X text 371 200 droite;
#X obj 362 66 inlet;
#X floatatom 319 237 5 0 0 0 - - -;
#X obj 492 74 bng 15 250 50 0 empty empty empty 17 7 0 10 -262144 -1
-1;
#X obj 285 60 inlet~;
#X obj 207 463 delay_test;
#X connect 0 0 5 0;
#X connect 0 0 6 0;
#X connect 0 0 18 0;
#X connect 1 0 0 1;
#X connect 3 0 1 0;
#X connect 4 0 0 0;
#X connect 4 0 21 0;
#X connect 5 0 13 0;
#X connect 6 0 14 0;
#X connect 8 0 12 1;
#X connect 9 0 11 1;
#X connect 10 0 11 0;
#X connect 11 0 21 1;
#X connect 12 0 21 2;
#X connect 13 0 8 0;
#X connect 14 0 9 0;
#X connect 17 0 4 0;
#X connect 19 0 1 0;
#X connect 20 0 12 0;
