#N canvas 538 276 450 300 10;
#X obj 117 149 readsf~;
#X obj 117 18 inlet;
#X obj 156 232 outlet;
#X obj 209 16 inlet;
#X obj 194 179 *~;
#X msg 56 72 1;
#X obj 205 211 throw~ sonG;
#X obj 205 244 throw~ sonD;
#X connect 0 0 4 0;
#X connect 0 1 2 0;
#X connect 1 0 0 0;
#X connect 1 0 5 0;
#X connect 3 0 4 1;
#X connect 4 0 6 0;
#X connect 4 0 7 0;
#X connect 5 0 0 0;
