#N canvas 392 361 450 300 10;
#X obj 117 149 readsf~;
#X obj 117 18 inlet;
#X obj 105 231 outlet~;
#X obj 156 232 outlet;
#X obj 209 16 inlet;
#X obj 194 179 *~;
#X msg 56 72 1;
#X connect 0 0 5 0;
#X connect 0 1 3 0;
#X connect 1 0 0 0;
#X connect 1 0 6 0;
#X connect 4 0 5 1;
#X connect 5 0 2 0;
#X connect 6 0 0 0;
