#N canvas 154 63 1472 691 10;
#X declare -lib mrpeach;
#X obj 11 16 import mrpeach;
#X obj 762 34 udpreceive 5005;
#X obj 762 76 unpackOSC;
#X obj 221 156 route /positionMain;
#X obj 1175 107 route /events;
#X obj 546 167 route /swipe;
#X obj 933 169 route /circle;
#X obj 1265 349 route /keytap;
#X obj 1401 352 route /screentap;
#N canvas 429 85 687 537 swipe 0;
#X obj 240 16 inlet;
#X obj 137 103 route /up;
#X obj 409 104 route /right;
#X obj 220 103 route /left;
#X obj 311 104 route /down;
#X obj 39 104 route /speed;
#X obj 503 103 route /stop;
#X msg 220 125 1;
#X msg 409 128 0;
#X obj 522 250 swipe_vert 0 2;
#X obj 220 150 swipe_horiz;
#X obj 137 239 swipe_vert 2 0;
#X obj 409 151 swipe_horiz;
#X obj 222 483 throw~ sonG;
#X obj 475 488 throw~ sonD;
#X floatatom 39 179 5 0 0 0 - - -;
#X connect 0 0 5 0;
#X connect 0 0 1 0;
#X connect 0 0 3 0;
#X connect 0 0 4 0;
#X connect 0 0 2 0;
#X connect 0 0 6 0;
#X connect 1 0 11 0;
#X connect 2 0 8 0;
#X connect 3 0 7 0;
#X connect 4 0 9 0;
#X connect 5 0 15 0;
#X connect 7 0 10 0;
#X connect 8 0 12 0;
#X connect 9 0 13 0;
#X connect 9 0 14 0;
#X connect 10 0 13 0;
#X connect 10 1 14 0;
#X connect 11 0 13 0;
#X connect 11 0 14 0;
#X connect 12 0 13 0;
#X connect 12 1 14 0;
#X restore 546 227 pd swipe;
#N canvas 62 17 1255 691 circle 0;
#X obj 483 204 route /trigo;
#X obj 671 212 route /horaire;
#X obj 412 319 route /start;
#X obj 671 325 route /start;
#X obj 527 320 route /stop;
#X obj 793 325 route /stop;
#X obj 603 93 inlet;
#X obj 413 521 *~ 1.5;
#X obj 486 521 *~ 1.5;
#X obj 740 517 *~ 1.5;
#X obj 796 515 *~ 1.5;
#X obj 547 401 delay 700;
#X msg 547 442 open sounds/staple.wav;
#X obj 660 477 f 0.1;
#X obj 483 404 r tval;
#X msg 412 381 0;
#X obj 412 451 cercle;
#X obj 740 449 cercle;
#X msg 740 383 1;
#X obj 609 469 b;
#X obj 515 648 throw~ sonG;
#X obj 659 648 throw~ sonD;
#X obj 602 503 play;
#X connect 0 0 2 0;
#X connect 0 0 4 0;
#X connect 1 0 3 0;
#X connect 1 0 5 0;
#X connect 2 0 11 0;
#X connect 2 0 15 0;
#X connect 3 0 11 0;
#X connect 3 0 18 0;
#X connect 6 0 0 0;
#X connect 6 0 1 0;
#X connect 7 0 20 0;
#X connect 8 0 21 0;
#X connect 9 0 20 0;
#X connect 10 0 21 0;
#X connect 11 0 12 0;
#X connect 12 0 19 0;
#X connect 12 0 22 0;
#X connect 13 0 22 1;
#X connect 14 0 12 0;
#X connect 15 0 16 0;
#X connect 16 0 7 0;
#X connect 16 1 8 0;
#X connect 17 0 9 0;
#X connect 17 1 10 0;
#X connect 18 0 17 0;
#X connect 19 0 13 0;
#X restore 933 228 pd circle;
#X obj 456 507 dac~;
#X obj 1306 505 play;
#X obj 62 453 bng 15 250 50 0 empty empty Set_theme_0 17 7 0 10 -262144
-1 -1;
#X obj 164 455 bng 15 250 50 0 empty empty Set_theme_1 17 7 0 10 -262144
-1 -1;
#N canvas 325 259 822 338 settheme0 0;
#X obj 111 15 inlet;
#X msg 111 101 set open sounds/staple.wav;
#X obj 111 164 s tval;
#X obj 330 163 s tswi;
#X obj 524 158 s tcirc;
#X msg 293 101 set open sounds/page_turn.wav;
#X msg 492 100 set open sounds/marker.wav;
#X connect 0 0 1 0;
#X connect 0 0 5 0;
#X connect 0 0 6 0;
#X connect 1 0 2 0;
#X connect 5 0 3 0;
#X connect 6 0 4 0;
#X restore 62 515 pd settheme0;
#N canvas 271 462 795 306 settheme1 0;
#X obj 110 24 inlet;
#X msg 41 91 set open sounds/cloche.wav;
#X obj 110 153 s tval;
#X obj 278 154 s tswi;
#X obj 472 149 s tcirc;
#X msg 243 89 set open sounds/horloge.wav;
#X msg 441 89 set open sounds/manivelle.wav;
#X connect 0 0 1 0;
#X connect 0 0 5 0;
#X connect 0 0 6 0;
#X connect 1 0 2 0;
#X connect 5 0 3 0;
#X connect 6 0 4 0;
#X restore 164 517 pd settheme1;
#X obj 1348 474 f 0.1;
#X obj 1119 355 r tval;
#X obj 1348 443 b;
#X msg 1306 414 open sounds/staple.wav;
#X text 74 554 0 : papier 1 : mécanique;
#X obj 43 397 loadbang;
#X obj 456 454 catch~ sonG;
#X obj 476 475 catch~ sonD;
#N canvas 529 128 857 482 posMain 1;
#X obj 309 18 inlet;
#X obj 35 68 route /distance;
#X obj 164 67 route /debutentree;
#X obj 328 65 route /debutsortie;
#X obj 501 65 route /entree;
#X obj 667 65 route /sortie;
#X floatatom 35 145 5 0 0 0 - - -;
#X msg 164 121 debutentree;
#X msg 328 113 debutsortie;
#X msg 501 112 entree;
#X msg 667 118 sortie;
#X connect 0 0 1 0;
#X connect 0 0 2 0;
#X connect 0 0 3 0;
#X connect 0 0 4 0;
#X connect 0 0 5 0;
#X connect 1 0 6 0;
#X connect 2 0 7 0;
#X connect 3 0 8 0;
#X connect 4 0 9 0;
#X connect 5 0 10 0;
#X restore 221 224 pd posMain;
#X connect 1 0 2 0;
#X connect 2 0 3 0;
#X connect 2 0 4 0;
#X connect 3 0 25 0;
#X connect 4 0 5 0;
#X connect 4 0 6 0;
#X connect 4 0 8 0;
#X connect 4 0 7 0;
#X connect 5 0 9 0;
#X connect 6 0 10 0;
#X connect 7 0 20 0;
#X connect 8 0 20 0;
#X connect 13 0 15 0;
#X connect 14 0 16 0;
#X connect 17 0 12 1;
#X connect 18 0 20 0;
#X connect 19 0 17 0;
#X connect 20 0 12 0;
#X connect 20 0 19 0;
#X connect 22 0 15 0;
#X connect 23 0 11 0;
#X connect 24 0 11 1;
