#N canvas 309 55 737 698 10;
#X floatatom 134 96 10 0 1e+006 0 - - -;
#X obj 134 116 s Sple;
#X obj 108 21 inlet;
#X obj 304 545 +~;
#X obj 349 545 +~;
#X obj 303 620 outlet~;
#X obj 357 621 outlet~;
#X text 149 23 Reception du sample stéréo;
#X text 410 99 A PARTIR DU TABLEAU (courbe);
#X obj 350 385 line~;
#X obj 254 541 f 1;
#X obj 223 483 b;
#X obj 116 466 b;
#X obj 105 602 line 1;
#X obj 304 580 *~;
#X obj 355 579 *~;
#X text 108 644 Volume est à 1 lorsque le son est joué et passe à
0 ensuite;
#X obj 108 151 expr $f1 / 44100;
#X msg 178 418 \$1;
#X obj 178 389 r Sple;
#X obj 108 212 * 1000;
#X obj 220 237 /;
#X obj 92 514 delay 800;
#X msg 90 560 0 200;
#X obj 321 183 f;
#X obj 296 305 pack;
#X obj 371 285 r Sple;
#X msg 307 329 1 \, \$2 \$1;
#X obj 373 120 tabread pitch_2;
#X msg 108 49 read -resize \$1 voieG2 voieD2;
#X obj 108 72 soundfiler sig2;
#X obj 305 491 tabread4~ voieG2;
#X obj 349 518 tabread4~ voieD2;
#X obj 373 31 inlet;
#X floatatom 436 51 5 0 0 0 - - -;
#X obj 373 99 - 550;
#X floatatom 175 305 5 0 0 0 - - -;
#X obj 109 252 f;
#X obj 176 219 b;
#X text 272 235 sync issues - todo : faire un truc joli;
#X connect 0 0 1 0;
#X connect 2 0 29 0;
#X connect 3 0 14 0;
#X connect 4 0 15 0;
#X connect 9 0 31 0;
#X connect 9 0 32 0;
#X connect 10 0 14 1;
#X connect 10 0 15 1;
#X connect 10 0 13 0;
#X connect 11 0 10 0;
#X connect 12 0 22 0;
#X connect 13 0 14 1;
#X connect 13 0 15 1;
#X connect 14 0 5 0;
#X connect 15 0 6 0;
#X connect 17 0 20 0;
#X connect 18 0 12 0;
#X connect 19 0 18 0;
#X connect 20 0 37 1;
#X connect 21 0 25 0;
#X connect 21 0 36 0;
#X connect 22 0 23 0;
#X connect 23 0 13 0;
#X connect 24 0 21 1;
#X connect 24 0 38 0;
#X connect 25 0 27 0;
#X connect 26 0 25 1;
#X connect 27 0 9 0;
#X connect 27 0 11 0;
#X connect 27 0 18 0;
#X connect 28 0 24 0;
#X connect 29 0 30 0;
#X connect 30 0 0 0;
#X connect 30 0 17 0;
#X connect 31 0 3 0;
#X connect 32 0 4 0;
#X connect 33 0 34 0;
#X connect 33 0 35 0;
#X connect 35 0 28 0;
#X connect 37 0 21 0;
#X connect 38 0 37 0;
