#N canvas 87 69 552 356 10;
#X obj 118 118 play;
#X obj 118 19 inlet;
#X obj 119 207 outlet~;
#X obj 217 148 line;
#X obj 217 36 f \$1;
#X obj 327 36 f \$2;
#X msg 321 121 \$1 \$2;
#X obj 323 88 pack;
#X obj 167 104 b;
#X msg 118 66 open sounds/page_turn.wav;
#X obj 167 135 f 1;
#X obj 118 165 *~;
#X obj 58 43 r tswi;
#X obj 395 66 f 600;
#X connect 0 0 11 0;
#X connect 1 0 9 0;
#X connect 1 0 4 0;
#X connect 1 0 5 0;
#X connect 3 0 11 1;
#X connect 4 0 3 0;
#X connect 5 0 7 0;
#X connect 6 0 3 0;
#X connect 7 0 6 0;
#X connect 8 0 10 0;
#X connect 8 0 13 0;
#X connect 9 0 0 0;
#X connect 9 0 8 0;
#X connect 10 0 0 1;
#X connect 11 0 2 0;
#X connect 12 0 9 0;
#X connect 13 0 7 1;
