#N canvas 476 145 905 497 10;
#X obj 214 18 inlet;
#X obj 212 296 outlet~;
#X obj 283 295 outlet~;
#X obj 392 235 line;
#X obj 350 62 * -1;
#X obj 387 86 + 1;
#X msg 442 194 \$1 \$2;
#X obj 424 127 f;
#X obj 441 165 pack;
#X obj 374 175 bng 15 250 50 0 empty empty empty 17 7 0 10 -262144
-1 -1;
#X obj 463 133 f 300;
#X obj 151 117 r tswi;
#X msg 214 142 open sounds/page_turn.wav;
#X floatatom 392 308 5 0 0 0 - - -;
#X obj 214 200 sampler_pd;
#X obj 213 252 pan_can2test;
#X floatatom 405 41 5 0 0 0 - - -;
#X obj 271 18 inlet;
#X connect 0 0 3 0;
#X connect 0 0 12 0;
#X connect 0 0 4 0;
#X connect 3 0 13 0;
#X connect 3 0 15 2;
#X connect 4 0 5 0;
#X connect 5 0 7 0;
#X connect 6 0 3 0;
#X connect 7 0 8 0;
#X connect 8 0 6 0;
#X connect 9 0 10 0;
#X connect 10 0 8 1;
#X connect 11 0 12 0;
#X connect 12 0 9 0;
#X connect 12 0 14 0;
#X connect 14 0 15 0;
#X connect 14 1 15 1;
#X connect 15 0 1 0;
#X connect 15 1 2 0;
#X connect 17 0 16 0;
#X connect 17 0 14 1;
