#N canvas 523 179 552 450 10;
#X obj 118 19 inlet;
#X obj 83 221 outlet~;
#X obj 217 149 line;
#X obj 217 36 f \$1;
#X obj 327 36 f \$2;
#X msg 321 121 \$1 \$2;
#X obj 323 88 pack;
#X obj 167 104 b;
#X msg 118 66 open sounds/page_turn.wav;
#X obj 82 176 *~;
#X obj 58 43 r tswi;
#X obj 395 66 f 600;
#X floatatom 177 46 5 0 0 0 - - -;
#X obj 172 220 outlet~;
#X obj 172 175 *~;
#X obj 83 126 sampler_pd;
#X obj 171 17 inlet;
#X connect 0 0 8 0;
#X connect 0 0 3 0;
#X connect 0 0 4 0;
#X connect 2 0 14 1;
#X connect 2 0 9 1;
#X connect 3 0 2 0;
#X connect 4 0 6 0;
#X connect 5 0 2 0;
#X connect 6 0 5 0;
#X connect 7 0 11 0;
#X connect 8 0 7 0;
#X connect 8 0 15 0;
#X connect 9 0 1 0;
#X connect 10 0 8 0;
#X connect 11 0 6 1;
#X connect 14 0 13 0;
#X connect 15 0 9 0;
#X connect 15 1 14 0;
#X connect 16 0 12 0;
#X connect 16 0 15 1;
