#N canvas 13 166 450 300 10;
#X obj 118 118 play;
#X msg 118 66 open sounds/page_turn.wav \, 1;
#X obj 118 19 inlet;
#X obj 119 207 outlet~;
#X obj 251 152 line;
#X obj 118 165 *~;
#X msg 251 107 1.5;
#X msg 308 96 0.25 600;
#X connect 0 0 5 0;
#X connect 1 0 0 0;
#X connect 1 0 7 0;
#X connect 2 0 1 0;
#X connect 2 0 6 0;
#X connect 4 0 5 1;
#X connect 5 0 3 0;
#X connect 6 0 4 0;
#X connect 7 0 4 0;
